<svg width="434" height="149" viewBox="0 0 434 149" fill="none" xmlns="http://www.w3.org/2000/svg">
<path d="M88 103V79.5H34V119.5H8V10H60.5V31" stroke="#4C64B6" stroke-width="15"/>
<path d="M33 27.5L33 51L87 51L87 11L113 11L113 120.5L60.5 120.5L60.5 99.5" stroke="#E75356" stroke-width="15"/>
<path d="M171.85 22.115V61H162.39V44.775H147.65V61H138.245V22.115H147.65V37.185H162.39V22.115H171.85ZM184.858 30.31L192.228 49.12L199.103 30.31H209.498L190.358 75.63H180.018L187.223 59.845L174.353 30.31H184.858ZM231.212 29.925C233.742 29.925 235.997 30.5667 237.977 31.85C239.993 33.0967 241.57 34.9117 242.707 37.295C243.88 39.6417 244.467 42.4283 244.467 45.655C244.467 48.845 243.88 51.6317 242.707 54.015C241.57 56.3983 239.993 58.2317 237.977 59.515C235.997 60.7617 233.742 61.385 231.212 61.385C228.865 61.385 226.848 60.8533 225.162 59.79C223.475 58.7267 222.247 57.2783 221.477 55.445V75.63H212.072V30.31H221.477V35.865C222.247 34.0317 223.475 32.5833 225.162 31.52C226.848 30.4567 228.865 29.925 231.212 29.925ZM228.187 38.175C226.207 38.175 224.575 38.8533 223.292 40.21C222.045 41.53 221.422 43.345 221.422 45.655C221.422 47.9283 222.045 49.7433 223.292 51.1C224.575 52.4567 226.207 53.135 228.187 53.135C230.203 53.135 231.817 52.475 233.027 51.155C234.273 49.835 234.897 48.0017 234.897 45.655C234.897 43.3083 234.273 41.475 233.027 40.155C231.817 38.835 230.203 38.175 228.187 38.175ZM277.947 44.83C277.947 45.6 277.855 46.4433 277.672 47.36H256.387C256.497 49.67 257.084 51.3383 258.147 52.365C259.21 53.355 260.567 53.85 262.217 53.85C263.61 53.85 264.765 53.5017 265.682 52.805C266.599 52.1083 267.204 51.21 267.497 50.11H277.452C277.049 52.2733 276.169 54.2167 274.812 55.94C273.455 57.6267 271.732 58.965 269.642 59.955C267.552 60.9083 265.224 61.385 262.657 61.385C259.65 61.385 256.974 60.7617 254.627 59.515C252.317 58.2317 250.502 56.3983 249.182 54.015C247.862 51.6317 247.202 48.845 247.202 45.655C247.202 42.4283 247.844 39.6417 249.127 37.295C250.447 34.9117 252.28 33.0967 254.627 31.85C256.974 30.5667 259.65 29.925 262.657 29.925C265.7 29.925 268.377 30.5483 270.687 31.795C272.997 33.0417 274.775 34.8017 276.022 37.075C277.305 39.3117 277.947 41.8967 277.947 44.83ZM268.432 43.4C268.469 41.3833 267.919 39.88 266.782 38.89C265.682 37.8633 264.307 37.35 262.657 37.35C260.934 37.35 259.504 37.8633 258.367 38.89C257.23 39.9167 256.589 41.42 256.442 43.4H268.432ZM291.705 36.085C292.878 34.215 294.382 32.73 296.215 31.63C298.085 30.53 300.102 29.98 302.265 29.98V40.045H299.57C297.077 40.045 295.133 40.5767 293.74 41.64C292.383 42.7033 291.705 44.5 291.705 47.03V61H282.3V30.31H291.705V36.085Z" fill="black"/>
<path d="M157.625 118.915V127H153.39C149.797 127 146.992 126.12 144.975 124.36C142.995 122.563 142.005 119.612 142.005 115.505V104.23H137.88V96.31H142.005V88.775H151.41V96.31H157.57V104.23H151.41V115.67C151.41 116.88 151.648 117.723 152.125 118.2C152.638 118.677 153.482 118.915 154.655 118.915H157.625ZM171.766 102.085C172.939 100.215 174.443 98.73 176.276 97.63C178.146 96.53 180.163 95.98 182.326 95.98V106.045H179.631C177.138 106.045 175.194 106.577 173.801 107.64C172.444 108.703 171.766 110.5 171.766 113.03V127H162.361V96.31H171.766V102.085ZM197.372 95.925C199.719 95.925 201.736 96.4567 203.422 97.52C205.109 98.5833 206.356 100.032 207.162 101.865V96.31H216.512V127H207.162V121.445C206.356 123.278 205.109 124.727 203.422 125.79C201.736 126.853 199.719 127.385 197.372 127.385C194.842 127.385 192.569 126.762 190.552 125.515C188.572 124.232 186.996 122.398 185.822 120.015C184.686 117.632 184.117 114.845 184.117 111.655C184.117 108.428 184.686 105.642 185.822 103.295C186.996 100.912 188.572 99.0967 190.552 97.85C192.569 96.5667 194.842 95.925 197.372 95.925ZM200.397 104.175C198.381 104.175 196.749 104.835 195.502 106.155C194.292 107.475 193.687 109.308 193.687 111.655C193.687 114.002 194.292 115.835 195.502 117.155C196.749 118.475 198.381 119.135 200.397 119.135C202.377 119.135 203.991 118.457 205.237 117.1C206.521 115.743 207.162 113.928 207.162 111.655C207.162 109.345 206.521 107.53 205.237 106.21C203.991 104.853 202.377 104.175 200.397 104.175ZM221.558 87.675C221.558 86.245 222.071 85.0717 223.098 84.155C224.124 83.2017 225.481 82.725 227.168 82.725C228.854 82.725 230.211 83.2017 231.238 84.155C232.264 85.0717 232.778 86.245 232.778 87.675C232.778 89.0683 232.264 90.2417 231.238 91.195C230.211 92.1117 228.854 92.57 227.168 92.57C225.481 92.57 224.124 92.1117 223.098 91.195C222.071 90.2417 221.558 89.0683 221.558 87.675ZM231.843 96.31V127H222.438V96.31H231.843ZM257.256 95.98C260.776 95.98 263.563 97.1533 265.616 99.5C267.706 101.847 268.751 105.073 268.751 109.18V127H259.346V110.28C259.346 108.227 258.796 106.632 257.696 105.495C256.633 104.322 255.203 103.735 253.406 103.735C251.5 103.735 249.978 104.34 248.841 105.55C247.741 106.76 247.191 108.483 247.191 110.72V127H237.786V96.31H247.191V101.92C248.071 100.087 249.373 98.6383 251.096 97.575C252.856 96.5117 254.91 95.98 257.256 95.98ZM303.554 110.83C303.554 111.6 303.463 112.443 303.279 113.36H281.994C282.104 115.67 282.691 117.338 283.754 118.365C284.818 119.355 286.174 119.85 287.824 119.85C289.218 119.85 290.373 119.502 291.289 118.805C292.206 118.108 292.811 117.21 293.104 116.11H303.059C302.656 118.273 301.776 120.217 300.419 121.94C299.063 123.627 297.339 124.965 295.249 125.955C293.159 126.908 290.831 127.385 288.264 127.385C285.258 127.385 282.581 126.762 280.234 125.515C277.924 124.232 276.109 122.398 274.789 120.015C273.469 117.632 272.809 114.845 272.809 111.655C272.809 108.428 273.451 105.642 274.734 103.295C276.054 100.912 277.888 99.0967 280.234 97.85C282.581 96.5667 285.258 95.925 288.264 95.925C291.308 95.925 293.984 96.5483 296.294 97.795C298.604 99.0417 300.383 100.802 301.629 103.075C302.913 105.312 303.554 107.897 303.554 110.83ZM294.039 109.4C294.076 107.383 293.526 105.88 292.389 104.89C291.289 103.863 289.914 103.35 288.264 103.35C286.541 103.35 285.111 103.863 283.974 104.89C282.838 105.917 282.196 107.42 282.049 109.4H294.039ZM317.312 102.085C318.485 100.215 319.989 98.73 321.822 97.63C323.692 96.53 325.709 95.98 327.872 95.98V106.045H325.177C322.684 106.045 320.74 106.577 319.347 107.64C317.99 108.703 317.312 110.5 317.312 113.03V127H307.907V96.31H317.312V102.085ZM339.343 117.595V127H329.608V117.595H339.343ZM363.176 95.98C366.696 95.98 369.483 97.1533 371.536 99.5C373.626 101.847 374.671 105.073 374.671 109.18V127H365.266V110.28C365.266 108.227 364.716 106.632 363.616 105.495C362.553 104.322 361.123 103.735 359.326 103.735C357.42 103.735 355.898 104.34 354.761 105.55C353.661 106.76 353.111 108.483 353.111 110.72V127H343.706V96.31H353.111V101.92C353.991 100.087 355.293 98.6383 357.016 97.575C358.776 96.5117 360.83 95.98 363.176 95.98ZM409.474 110.83C409.474 111.6 409.383 112.443 409.199 113.36H387.914C388.024 115.67 388.611 117.338 389.674 118.365C390.738 119.355 392.094 119.85 393.744 119.85C395.138 119.85 396.293 119.502 397.209 118.805C398.126 118.108 398.731 117.21 399.024 116.11H408.979C408.576 118.273 407.696 120.217 406.339 121.94C404.983 123.627 403.259 124.965 401.169 125.955C399.079 126.908 396.751 127.385 394.184 127.385C391.178 127.385 388.501 126.762 386.154 125.515C383.844 124.232 382.029 122.398 380.709 120.015C379.389 117.632 378.729 114.845 378.729 111.655C378.729 108.428 379.371 105.642 380.654 103.295C381.974 100.912 383.808 99.0967 386.154 97.85C388.501 96.5667 391.178 95.925 394.184 95.925C397.228 95.925 399.904 96.5483 402.214 97.795C404.524 99.0417 406.303 100.802 407.549 103.075C408.833 105.312 409.474 107.897 409.474 110.83ZM399.959 109.4C399.996 107.383 399.446 105.88 398.309 104.89C397.209 103.863 395.834 103.35 394.184 103.35C392.461 103.35 391.031 103.863 389.894 104.89C388.758 105.917 388.116 107.42 387.969 109.4H399.959ZM431.207 118.915V127H426.972C423.379 127 420.574 126.12 418.557 124.36C416.577 122.563 415.587 119.612 415.587 115.505V104.23H411.462V96.31H415.587V88.775H424.992V96.31H431.152V104.23H424.992V115.67C424.992 116.88 425.23 117.723 425.707 118.2C426.22 118.677 427.064 118.915 428.237 118.915H431.207Z" fill="black"/>
</svg>
